# xmcd
#
# Track frame offsets: 
#        150
#        12863
#        29270
#        43065
#        58673
#        70038
#        82050
#        102575
#        114200
#        134625
#        145100
#        162750
#        174770
#        191638
#        204778
#        221995
#
# Disc length: 3219 seconds
#
# Revision: 2
# Processed by: cddbd v1.5.2PL0 Copyright (c) Steve Scherf et al.
# Submitted via: ExactAudioCopy v1.0b3
#
DISCID=df0c9110
DTITLE=ドリーミング - 「それいけ!アンパンマン」～ドリーミング･ベスト
DYEAR=1994
DGENRE=Anime
TTITLE0=アンパンマンのマーチ
TTITLE1=すすめ!アンパンマン号
TTITLE2=私はドキンちゃん
TTITLE3=おなじみしょくぱんまん
TTITLE4=とべ!カレーパンマン
TTITLE5=あかちゃんまんのぼうけん
TTITLE6=勇気の花がひらくとき
TTITLE7=アンパンマン絵かきうた'89
TTITLE8=アンパンマンたいそう
TTITLE9=カレンなカレンダーガール
TTITLE10=とんでくるのは誰?
TTITLE11=手のひらを太陽に
TTITLE12=アンパンマン音頭'89
TTITLE13=勇気りんりん
TTITLE14=ふたごのバースデー
TTITLE15=生命あるもの
EXTD=
EXTT0=
EXTT1=
EXTT2=
EXTT3=
EXTT4=
EXTT5=
EXTT6=
EXTT7=
EXTT8=
EXTT9=
EXTT10=
EXTT11=
EXTT12=
EXTT13=
EXTT14=
EXTT15=
PLAYORDER=
